<svg width="18" height="18" viewBox="0 0 18 18" fill="none" xmlns="http://www.w3.org/2000/svg">
<path d="M6.9675 9.9675L3 13.9425V12.75C3 12.5511 2.92098 12.3603 2.78033 12.2197C2.63968 12.079 2.44891 12 2.25 12C2.05109 12 1.86032 12.079 1.71967 12.2197C1.57902 12.3603 1.5 12.5511 1.5 12.75V15.75C1.50118 15.848 1.52157 15.9448 1.56 16.035C1.63611 16.2183 1.78174 16.3639 1.965 16.44C2.05517 16.4784 2.15199 16.4988 2.25 16.5H5.25C5.44891 16.5 5.63968 16.421 5.78033 16.2803C5.92098 16.1397 6 15.9489 6 15.75C6 15.5511 5.92098 15.3603 5.78033 15.2197C5.63968 15.079 5.44891 15 5.25 15H4.0575L8.0325 11.0325C8.17373 10.8913 8.25307 10.6997 8.25307 10.5C8.25307 10.3003 8.17373 10.1087 8.0325 9.9675C7.89127 9.82627 7.69973 9.74693 7.5 9.74693C7.30027 9.74693 7.10873 9.82627 6.9675 9.9675ZM4.0575 3H5.25C5.44891 3 5.63968 2.92098 5.78033 2.78033C5.92098 2.63968 6 2.44891 6 2.25C6 2.05109 5.92098 1.86032 5.78033 1.71967C5.63968 1.57902 5.44891 1.5 5.25 1.5H2.25C2.15199 1.50118 2.05517 1.52157 1.965 1.56C1.78174 1.63611 1.63611 1.78174 1.56 1.965C1.52157 2.05517 1.50118 2.15199 1.5 2.25V5.25C1.5 5.44891 1.57902 5.63968 1.71967 5.78033C1.86032 5.92098 2.05109 6 2.25 6C2.44891 6 2.63968 5.92098 2.78033 5.78033C2.92098 5.63968 3 5.44891 3 5.25V4.0575L6.9675 8.0325C7.03722 8.1028 7.12017 8.15859 7.21157 8.19667C7.30296 8.23475 7.40099 8.25435 7.5 8.25435C7.59901 8.25435 7.69704 8.23475 7.78843 8.19667C7.87983 8.15859 7.96278 8.1028 8.0325 8.0325C8.1028 7.96278 8.15859 7.87983 8.19667 7.78843C8.23475 7.69704 8.25435 7.59901 8.25435 7.5C8.25435 7.40099 8.23475 7.30296 8.19667 7.21157C8.15859 7.12017 8.1028 7.03722 8.0325 6.9675L4.0575 3ZM15.75 12C15.5511 12 15.3603 12.079 15.2197 12.2197C15.079 12.3603 15 12.5511 15 12.75V13.9425L11.0325 9.9675C10.8913 9.82627 10.6997 9.74693 10.5 9.74693C10.3003 9.74693 10.1087 9.82627 9.9675 9.9675C9.82627 10.1087 9.74693 10.3003 9.74693 10.5C9.74693 10.6997 9.82627 10.8913 9.9675 11.0325L13.9425 15H12.75C12.5511 15 12.3603 15.079 12.2197 15.2197C12.079 15.3603 12 15.5511 12 15.75C12 15.9489 12.079 16.1397 12.2197 16.2803C12.3603 16.421 12.5511 16.5 12.75 16.5H15.75C15.848 16.4988 15.9448 16.4784 16.035 16.44C16.2183 16.3639 16.3639 16.2183 16.44 16.035C16.4784 15.9448 16.4988 15.848 16.5 15.75V12.75C16.5 12.5511 16.421 12.3603 16.2803 12.2197C16.1397 12.079 15.9489 12 15.75 12ZM16.44 1.965C16.3639 1.78174 16.2183 1.63611 16.035 1.56C15.9448 1.52157 15.848 1.50118 15.75 1.5H12.75C12.5511 1.5 12.3603 1.57902 12.2197 1.71967C12.079 1.86032 12 2.05109 12 2.25C12 2.44891 12.079 2.63968 12.2197 2.78033C12.3603 2.92098 12.5511 3 12.75 3H13.9425L9.9675 6.9675C9.8972 7.03722 9.84141 7.12017 9.80333 7.21157C9.76525 7.30296 9.74565 7.40099 9.74565 7.5C9.74565 7.59901 9.76525 7.69704 9.80333 7.78843C9.84141 7.87983 9.8972 7.96278 9.9675 8.0325C10.0372 8.1028 10.1202 8.15859 10.2116 8.19667C10.303 8.23475 10.401 8.25435 10.5 8.25435C10.599 8.25435 10.697 8.23475 10.7884 8.19667C10.8798 8.15859 10.9628 8.1028 11.0325 8.0325L15 4.0575V5.25C15 5.44891 15.079 5.63968 15.2197 5.78033C15.3603 5.92098 15.5511 6 15.75 6C15.9489 6 16.1397 5.92098 16.2803 5.78033C16.421 5.63968 16.5 5.44891 16.5 5.25V2.25C16.4988 2.15199 16.4784 2.05517 16.44 1.965Z" fill="white" fill-opacity="0.8"/>
</svg>
