<svg width="178" height="42" viewBox="0 0 178 42" fill="none" xmlns="http://www.w3.org/2000/svg">
<g clip-path="url(#clip0)">
<path opacity="0.1" d="M14.0129 34.7826C21.7521 34.7826 28.0259 34.3831 28.0259 33.8902C28.0259 33.3973 21.7521 32.9977 14.0129 32.9977C6.27381 32.9977 0 33.3973 0 33.8902C0 34.3831 6.27381 34.7826 14.0129 34.7826Z" fill="#42361A"/>
<path d="M21.0129 33.8901C25.6052 33.8901 29.3281 30.0974 29.3281 25.4188C29.3281 20.7402 25.6052 16.9475 21.0129 16.9475C16.4206 16.9475 12.6978 20.7402 12.6978 25.4188C12.6978 30.0974 16.4206 33.8901 21.0129 33.8901Z" fill="#FFD14C"/>
<path opacity="0.3" d="M21.0128 32.1465C24.5307 32.1465 27.3825 29.2411 27.3825 25.6571C27.3825 22.0732 24.5307 19.1678 21.0128 19.1678C17.4949 19.1678 14.6431 22.0732 14.6431 25.6571C14.6431 29.2411 17.4949 32.1465 21.0128 32.1465Z" fill="#423619"/>
<path d="M21.0128 31.9082C24.5307 31.9082 27.3825 29.0028 27.3825 25.4188C27.3825 21.8348 24.5307 18.9294 21.0128 18.9294C17.4949 18.9294 14.6431 21.8348 14.6431 25.4188C14.6431 29.0028 17.4949 31.9082 21.0128 31.9082Z" fill="#F89E55"/>
<path d="M17.5053 10.2648C18.3801 7.2165 17.7834 4.93057 17.7834 4.93057L11.4877 5.19686L8.94071 2.89634H7.91311V2.89026H3.36227C3.30029 4.00346 3.31784 5.11978 3.41479 6.23039L3.43388 14.3065C3.10567 14.529 2.87532 15.0628 2.87532 15.6878C2.87532 16.3128 3.10328 16.8539 3.43866 17.0728L3.47207 31.3671H3.4303C3.35758 31.3671 3.28556 31.3817 3.21838 31.4101C3.15119 31.4384 3.09014 31.48 3.03871 31.5324C2.98729 31.5847 2.9465 31.6469 2.91867 31.7154C2.89084 31.7838 2.87651 31.8572 2.87651 31.9313C2.87651 32.0054 2.89084 32.0787 2.91867 32.1472C2.9465 32.2156 2.98729 32.2778 3.03871 32.3302C3.09014 32.3826 3.15119 32.4242 3.21838 32.4525C3.28556 32.4809 3.35758 32.4955 3.4303 32.4955C3.44497 32.4972 3.45979 32.4972 3.47446 32.4955V33.9011H0.982422V0.483954C0.982422 0.483954 21.7494 -2.75769 21.7494 7.53629C21.7494 17.8303 9.33696 16.3019 9.33696 16.3019V13.9223C9.33696 13.9223 16.091 13.4469 17.3108 10.767L17.2941 10.7573C17.3857 10.6035 17.4568 10.4378 17.5053 10.2648Z" fill="#FFD14C"/>
<path d="M17.7832 4.93056C17.7832 4.93056 18.3799 7.21649 17.5063 10.2648C17.4576 10.4357 17.387 10.5992 17.2962 10.7512C15.8294 13.3289 9.33911 13.4979 9.33911 13.4979V16.2945L11.0613 19.3854L12.0161 21.0999C11.917 21.1734 11.838 21.2716 11.7868 21.3851C11.7356 21.4986 11.7138 21.6235 11.7236 21.7481C11.7334 21.8726 11.7744 21.9925 11.8427 22.0962C11.911 22.1999 12.0044 22.2841 12.1137 22.3405C12.2231 22.397 12.3449 22.4239 12.4674 22.4187C12.5899 22.4135 12.709 22.3763 12.8134 22.3107C12.9177 22.2452 13.0038 22.1534 13.0634 22.0442C13.1229 21.935 13.154 21.8121 13.1536 21.6872C13.1539 21.5594 13.1219 21.4338 13.0605 21.3224L13.3767 21.0293C13.4865 20.9284 13.6011 20.8214 13.7157 20.7132L13.9007 20.5418C13.9269 20.5199 13.9508 20.4968 13.9759 20.4725L14.2528 20.2159V20.2098C14.2922 20.1782 14.513 19.9897 14.8101 19.7356C15.4069 19.4219 15.506 20.4846 15.506 20.4846L12.4554 25.0005L10.1041 23.5864C10.133 24.1324 10.0697 24.6795 9.91677 25.2036C9.81865 25.0122 9.67229 24.851 9.49273 24.7363C9.31318 24.6217 9.10689 24.5578 8.89508 24.5512C8.68327 24.5447 8.47356 24.5957 8.28752 24.6991C8.10147 24.8024 7.94579 24.9544 7.83647 25.1393C7.72715 25.3243 7.66814 25.5355 7.66549 25.7514C7.66285 25.9673 7.71666 26.18 7.82142 26.3677C7.92617 26.5553 8.07808 26.7112 8.26154 26.8192C8.44499 26.9273 8.65338 26.9837 8.86529 26.9825C8.97019 26.9822 9.07457 26.9675 9.1756 26.9387C8.92042 27.3924 8.62733 27.8228 8.29957 28.2252C8.697 28.1486 9.93706 28.0574 10.2856 28.7748C10.6341 29.4922 9.97406 30.7555 9.40475 31.6176C9.26152 31.5636 9.1099 31.5364 8.95719 31.5373C8.35328 31.5373 7.86155 31.9459 7.86155 32.4493C7.86155 32.9527 8.35328 33.3624 8.95719 33.3624V33.8938H3.47781V32.4882C3.61659 32.478 3.74645 32.4147 3.84123 32.3109C3.93602 32.2071 3.98868 32.0706 3.98863 31.9289C3.98789 31.7865 3.93478 31.6495 3.83976 31.545C3.74475 31.4406 3.61474 31.3762 3.47542 31.3647L3.43842 17.0727C3.53648 17.1403 3.65184 17.1771 3.77022 17.1785C4.26433 17.1785 4.66654 16.5122 4.66654 15.6878C4.66654 14.8634 4.26433 14.1971 3.77022 14.1971C3.64976 14.1981 3.53242 14.2363 3.43365 14.3065L3.41455 6.23038C3.59835 8.15518 4.13065 10.1967 5.54376 10.1967C8.18141 10.1967 7.92242 3.12735 7.91287 2.90118H8.94048L11.4874 5.19684L17.7832 4.93056ZM10.2784 5.12632H8.78174C9.62197 6.87481 10.2784 5.12632 10.2784 5.12632ZM10.097 19.3988C10.1878 19.2711 10.2394 19.1189 10.2453 18.9614C10.2512 18.8039 10.2112 18.6481 10.1303 18.5137C10.0494 18.3794 9.93123 18.2724 9.79071 18.2065C9.65019 18.1405 9.49363 18.1184 9.34079 18.143C9.18796 18.1676 9.0457 18.2377 8.93199 18.3446C8.81827 18.4515 8.7382 18.5904 8.70188 18.7436C8.66556 18.8968 8.67462 19.0576 8.72792 19.2056C8.78122 19.3536 8.87637 19.4822 9.00135 19.5751C9.08453 19.6372 9.17894 19.6818 9.27913 19.7066C9.37933 19.7313 9.48334 19.7356 9.58518 19.7192C9.68701 19.7028 9.78466 19.6661 9.8725 19.6111C9.96034 19.5561 10.0366 19.4839 10.097 19.3988ZM4.82169 23.0551C4.82146 22.9707 4.79669 22.8883 4.75051 22.8183C4.70434 22.7483 4.63883 22.6938 4.56226 22.6616C4.48569 22.6295 4.4015 22.6212 4.32032 22.6378C4.23913 22.6545 4.1646 22.6952 4.10613 22.7549C4.04766 22.8147 4.00788 22.8907 3.99182 22.9735C3.97575 23.0562 3.98411 23.142 4.01586 23.2199C4.0476 23.2978 4.10129 23.3644 4.17016 23.4112C4.23902 23.4581 4.31997 23.4831 4.40277 23.4831C4.45789 23.4831 4.51246 23.472 4.56336 23.4505C4.61427 23.4289 4.6605 23.3974 4.69942 23.3576C4.73833 23.3179 4.76917 23.2707 4.79015 23.2188C4.81113 23.1668 4.82185 23.1112 4.82169 23.0551Z" fill="white"/>
<path d="M17.295 10.7573L17.3117 10.767C16.0919 13.442 9.33789 13.9284 9.33789 13.9284V13.5101C9.33789 13.5101 15.8282 13.335 17.295 10.7573Z" fill="#F89E55"/>
<path d="M16.8046 17.395C16.8046 17.395 17.1961 17.8206 16.7581 18.1392C16.4692 18.3507 15.4619 19.1982 14.815 19.7442C14.7282 19.7925 14.648 19.8522 14.5763 19.9217L14.2589 20.2184V20.2245L13.982 20.481L13.9068 20.5503L13.7218 20.7218L13.3828 21.0379L13.0666 21.331C13.0035 21.2196 12.9126 21.1273 12.8032 21.0632C12.6938 20.9991 12.5697 20.9657 12.4435 20.9662C12.293 20.9668 12.1464 21.0157 12.0246 21.106L11.0698 19.394L12.7706 19.7928L16.8046 17.395Z" fill="white"/>
<path d="M14.5751 19.9217C14.6468 19.8522 14.727 19.7925 14.8138 19.7441C14.5166 19.9983 14.2957 20.1868 14.2563 20.2184L14.5751 19.9217Z" fill="white"/>
<path d="M13.9009 20.5503L13.9752 20.481C13.9504 20.5016 13.9268 20.5284 13.9009 20.5503Z" fill="white"/>
<path d="M13.377 21.0379L13.716 20.7217C13.6062 20.83 13.4868 20.937 13.377 21.0379Z" fill="white"/>
<path d="M13.0603 21.3309C13.1217 21.4423 13.1538 21.568 13.1534 21.6957C13.1538 21.8206 13.1228 21.9435 13.0632 22.0527C13.0037 22.1619 12.9176 22.2537 12.8132 22.3193C12.7089 22.3848 12.5897 22.422 12.4672 22.4272C12.3447 22.4325 12.2229 22.4055 12.1136 22.3491C12.0042 22.2926 11.9109 22.2085 11.8426 22.1047C11.7743 22.001 11.7333 21.8811 11.7235 21.7566C11.7137 21.6321 11.7354 21.5071 11.7867 21.3936C11.8379 21.2801 11.9168 21.1819 12.016 21.1084L12.0375 21.1437L12.4552 21.8939L12.9135 21.4707L13.0567 21.3382L13.0603 21.3309Z" fill="#231F20"/>
<path d="M13.0603 21.3309L12.9171 21.4635L12.4588 21.8866L12.0411 21.1364L12.022 21.0987C12.1437 21.0084 12.2903 20.9594 12.4409 20.9589C12.5672 20.9597 12.691 20.9946 12.7998 21.0599C12.9086 21.1253 12.9984 21.2188 13.0603 21.3309Z" fill="white"/>
<path d="M12.9136 21.4672L13.0579 21.3346L12.9136 21.4672Z" fill="#231F20"/>
<path d="M12.0378 21.14L12.0161 21.1047L12.0378 21.14Z" fill="white"/>
<path d="M12.0188 21.1023L11.064 19.3879L12.0188 21.1023Z" fill="white"/>
<path d="M10.8332 32.5624C11.9551 32.5624 11.8931 33.8999 11.8931 33.8999H8.95703V33.3685C9.51917 33.3685 9.98106 33.0171 10.0455 32.566L10.8332 32.5624Z" fill="white"/>
<path d="M8.78174 5.12634H10.2784C10.2784 5.12634 9.62197 6.87483 8.78174 5.12634Z" fill="#231F20"/>
<path d="M9.92392 18.2851C10.0493 18.3778 10.1449 18.5063 10.1986 18.6544C10.2522 18.8025 10.2616 18.9635 10.2254 19.117C10.1892 19.2705 10.1091 19.4096 9.99521 19.5167C9.88136 19.6238 9.73888 19.694 9.58581 19.7186C9.43274 19.7431 9.27596 19.7208 9.13533 19.6545C8.9947 19.5883 8.87653 19.4809 8.7958 19.3462C8.71507 19.2114 8.67541 19.0553 8.68182 18.8976C8.68824 18.7399 8.74046 18.5876 8.83186 18.4601C8.95389 18.2894 9.1375 18.175 9.3423 18.1422C9.54709 18.1094 9.75631 18.1607 9.92392 18.2851Z" fill="#231F20"/>
<path d="M8.71279 32.5623H10.0459C9.98148 33.0135 9.5196 33.3649 8.95745 33.3649C8.35354 33.3649 7.86182 32.9551 7.86182 32.4517C7.86182 31.9483 8.35354 31.5398 8.95745 31.5398C9.11017 31.5388 9.26179 31.566 9.40502 31.62C9.03981 32.1745 8.71279 32.5623 8.71279 32.5623Z" fill="#231F20"/>
<path d="M8.86518 24.5628C9.08117 24.5631 9.29305 24.623 9.47822 24.7363C9.6634 24.8496 9.81493 25.0119 9.91666 25.206C9.74049 25.8148 9.49157 26.3991 9.17549 26.946C9.07446 26.9748 8.97008 26.9895 8.86518 26.9898C8.5683 26.9626 8.29213 26.8233 8.09099 26.5992C7.88986 26.3751 7.77832 26.0824 7.77832 25.7787C7.77832 25.4751 7.88986 25.1824 8.09099 24.9583C8.29213 24.7341 8.5683 24.5948 8.86518 24.5677V24.5628Z" fill="#231F20"/>
<path d="M7.91271 2.8964C7.92226 3.12743 8.18125 10.1919 5.5436 10.1919C4.12691 10.1919 3.59819 8.1504 3.41439 6.2256L3.40723 2.89154L7.91271 2.8964Z" fill="#231F20"/>
<path d="M7.91275 2.89026V2.89634H3.40727L3.41443 6.23039C3.31749 5.11978 3.29994 4.00346 3.36192 2.89026H7.91275Z" fill="#231F20"/>
<path d="M4.40308 22.6222C4.48632 22.6217 4.56783 22.6464 4.63725 22.6932C4.70668 22.74 4.7609 22.8068 4.79303 22.885C4.82516 22.9632 4.83375 23.0494 4.81771 23.1327C4.80167 23.2159 4.76173 23.2924 4.70295 23.3524C4.64418 23.4125 4.56921 23.4534 4.48758 23.47C4.40594 23.4865 4.32131 23.478 4.24442 23.4455C4.16754 23.413 4.10187 23.358 4.05574 23.2874C4.00962 23.2168 3.98512 23.1338 3.98535 23.049C3.98535 22.936 4.02933 22.8276 4.10763 22.7476C4.18593 22.6676 4.29218 22.6225 4.40308 22.6222Z" fill="#231F20"/>
<path d="M3.77027 14.1971C4.26438 14.1971 4.66659 14.8647 4.66659 15.6879C4.66659 16.511 4.26438 17.1786 3.77027 17.1786C3.6519 17.1771 3.53654 17.1404 3.43848 17.0728V14.3066C3.53591 14.2373 3.65144 14.1991 3.77027 14.1971Z" fill="#231F20"/>
<path d="M3.47217 31.3671C3.61149 31.3787 3.74149 31.4431 3.83651 31.5475C3.93152 31.652 3.98464 31.7889 3.98537 31.9313C3.98543 32.0731 3.93276 32.2096 3.83798 32.3134C3.7432 32.4171 3.61334 32.4805 3.47456 32.4906L3.47217 31.3671Z" fill="#231F20"/>
<path d="M3.47197 31.3671V32.4906C3.4573 32.4924 3.44248 32.4924 3.42781 32.4906C3.35509 32.4906 3.28307 32.476 3.21589 32.4477C3.1487 32.4193 3.08765 32.3778 3.03622 32.3254C2.9848 32.273 2.94401 32.2108 2.91618 32.1423C2.88835 32.0739 2.87402 32.0005 2.87402 31.9264C2.87402 31.8523 2.88835 31.779 2.91618 31.7105C2.94401 31.6421 2.9848 31.5799 3.03622 31.5275C3.08765 31.4751 3.1487 31.4335 3.21589 31.4052C3.28307 31.3768 3.35509 31.3622 3.42781 31.3622L3.47197 31.3671Z" fill="#FFD14C"/>
<path d="M3.43394 14.3066V17.0728C3.10334 16.8539 2.87061 16.3165 2.87061 15.6879C2.87061 15.0592 3.10334 14.5291 3.43394 14.3066Z" fill="#FFD14C"/>
<g opacity="0.3">
<path opacity="0.3" d="M19.1355 29.1347L19.5676 28.1486C19.0162 27.8872 18.5185 27.4494 18.2905 27.0543L18.8073 26.5059C19.0982 26.9644 19.5126 27.3278 20.0008 27.5528C20.6799 27.8616 21.3137 27.6744 21.5524 27.115C21.7911 26.5788 21.5595 26.0767 20.9795 25.4614C20.1739 24.6273 19.7681 23.9038 20.144 23.0551C20.5021 22.2465 21.3375 21.8878 22.2792 22.1432L22.7101 21.157L23.3068 21.4282L22.8915 22.3742C23.3266 22.5765 23.7038 22.8887 23.9871 23.2813L23.4656 23.8163C23.1974 23.4296 22.8305 23.1252 22.4045 22.9359C21.667 22.6003 21.1931 22.9226 21.0213 23.3129C20.7993 23.8199 21.0428 24.2345 21.7219 24.9653C22.5275 25.8237 22.8032 26.5569 22.4224 27.4251C22.0847 28.196 21.2421 28.6787 20.1834 28.3978L19.7383 29.4119L19.1355 29.1347Z" fill="#423618"/>
</g>
<path d="M19.045 28.9803L19.477 27.9954C18.9268 27.7328 18.4291 27.295 18.2012 26.9011L18.7168 26.3527C19.0083 26.8106 19.4225 27.1739 19.9103 27.3996C20.5906 27.7084 21.2231 27.5212 21.469 26.9619C21.7077 26.4256 21.4761 25.9235 20.8961 25.3094C20.0905 24.4741 19.6835 23.7506 20.0607 22.9019C20.4187 22.0933 21.2542 21.7358 22.1946 21.99L22.6267 21.0051L23.2234 21.275L22.8093 22.221C23.2443 22.4229 23.6212 22.7352 23.9037 23.1281L23.3822 23.6631C23.1147 23.2758 22.7475 22.9712 22.3212 22.7827C21.5848 22.4471 21.1097 22.7694 20.9391 23.1597C20.7171 23.6667 20.9594 24.0826 21.6385 24.8121C22.4453 25.6706 22.721 26.4038 22.3402 27.2719C22.0025 28.0428 21.1599 28.5255 20.1 28.2447L19.6489 29.2563L19.045 28.9803Z" fill="#FFD14C"/>
<path opacity="0.2" d="M15.5156 20.4932L12.7061 25.2134C12.7061 25.2134 12.7287 24.6638 12.7431 24.586L15.5156 20.4932Z" fill="#42361A"/>
<path opacity="0.2" d="M16.7589 18.1392L15.0594 19.6882C14.9908 19.6816 14.9217 19.6933 14.8589 19.7223L14.9042 19.67L16.7589 18.1392Z" fill="#42361A"/>
</g>
<g filter="url(#filter0_ddd)">
<path d="M34.1071 28.6957H32.5093V18.3444H34.1071V20.0974H34.3529C34.9811 18.7339 36.0736 18.0522 37.6305 18.0522C38.805 18.0522 39.7404 18.4278 40.4369 19.1791C41.1334 19.9165 41.4816 21.0296 41.4816 22.5183V28.6957H39.8838V22.8522C39.8838 21.767 39.6448 20.9531 39.1669 20.4105C38.6889 19.8678 38.0402 19.5965 37.2208 19.5965C36.2512 19.5965 35.4864 19.9374 34.9265 20.6191C34.3802 21.287 34.1071 22.1844 34.1071 23.3113V28.6957Z" fill="#FFD14C"/>
<path d="M52.775 27.1096H52.5292C52.2015 27.7357 51.7508 28.2087 51.1772 28.5287C50.6173 28.8348 50.0028 28.9878 49.3336 28.9878C48.6508 28.9878 48.0089 28.8696 47.408 28.6331C46.8071 28.3965 46.2745 28.0557 45.8102 27.6105C45.3595 27.1652 44.9976 26.6157 44.7245 25.9618C44.465 25.2939 44.3353 24.5357 44.3353 23.687V23.3531C44.3353 22.5183 44.4718 21.7739 44.745 21.12C45.0181 20.4522 45.38 19.8957 45.8307 19.4505C46.2813 18.9913 46.8071 18.6435 47.408 18.407C48.0089 18.1705 48.6371 18.0522 49.2926 18.0522C50.0301 18.0522 50.6719 18.2191 51.2182 18.5531C51.7781 18.8731 52.2151 19.3461 52.5292 19.9722H52.775V18.3444H54.3729V31.2418C54.3729 31.7148 54.2226 32.1044 53.9222 32.4104C53.6354 32.7165 53.2598 32.8696 52.7955 32.8696H46.1789V31.367H52.2219C52.5907 31.367 52.775 31.1583 52.775 30.7409V27.1096ZM49.3745 27.4435C49.8525 27.4435 50.2964 27.3531 50.7061 27.1722C51.1158 26.9913 51.4708 26.7339 51.7713 26.4C52.0854 26.0661 52.3312 25.6696 52.5087 25.2105C52.6863 24.7374 52.775 24.2157 52.775 23.6452V23.3948C52.775 22.8383 52.6863 22.3305 52.5087 21.8713C52.3312 21.3983 52.0854 20.9948 51.7713 20.6609C51.4708 20.327 51.1089 20.0696 50.6856 19.8887C50.2759 19.6939 49.8389 19.5965 49.3745 19.5965C48.8966 19.5965 48.4459 19.687 48.0225 19.8678C47.6129 20.0487 47.251 20.3061 46.9369 20.64C46.6364 20.9739 46.3974 21.3705 46.2199 21.8296C46.056 22.2887 45.9741 22.7965 45.9741 23.3531V23.687C45.9741 24.2713 46.056 24.7931 46.2199 25.2522C46.3974 25.7113 46.6364 26.1078 46.9369 26.4418C47.251 26.7618 47.6129 27.0122 48.0225 27.1931C48.4322 27.36 48.8829 27.4435 49.3745 27.4435Z" fill="#FFD14C"/>
<path d="M67.1821 23.6452C67.1821 24.5078 67.0387 25.2731 66.7519 25.9409C66.4788 26.5948 66.1101 27.1513 65.6458 27.6105C65.1814 28.0557 64.6352 28.3965 64.007 28.6331C63.3924 28.8696 62.7506 28.9878 62.0814 28.9878C61.3986 28.9878 60.7499 28.8696 60.1353 28.6331C59.5208 28.3965 58.9814 28.0557 58.517 27.6105C58.0527 27.1513 57.6772 26.5948 57.3904 25.9409C57.1172 25.2731 56.9807 24.5078 56.9807 23.6452V23.3948C56.9807 22.5461 57.1172 21.7948 57.3904 21.1409C57.6772 20.4731 58.0527 19.9096 58.517 19.4505C58.995 18.9913 59.5413 18.6435 60.1558 18.407C60.7704 18.1705 61.4122 18.0522 62.0814 18.0522C62.7506 18.0522 63.3924 18.1705 64.007 18.407C64.6215 18.6435 65.1609 18.9913 65.6253 19.4505C66.1033 19.9096 66.4788 20.4731 66.7519 21.1409C67.0387 21.7948 67.1821 22.5461 67.1821 23.3948V23.6452ZM62.0814 27.4435C62.573 27.4435 63.0237 27.36 63.4334 27.1931C63.8567 27.0122 64.2255 26.7548 64.5396 26.4209C64.8537 26.087 65.0995 25.6905 65.277 25.2313C65.4546 24.7583 65.5433 24.2296 65.5433 23.6452V23.3948C65.5433 22.8383 65.4546 22.3305 65.277 21.8713C65.0995 21.3983 64.8537 20.9948 64.5396 20.6609C64.2255 20.327 63.8567 20.0696 63.4334 19.8887C63.01 19.6939 62.5594 19.5965 62.0814 19.5965C61.6034 19.5965 61.1528 19.6939 60.7294 19.8887C60.306 20.0696 59.9373 20.327 59.6232 20.6609C59.3091 20.9948 59.0633 21.3983 58.8858 21.8713C58.7082 22.3305 58.6195 22.8383 58.6195 23.3948V23.6452C58.6195 24.2296 58.7082 24.7583 58.8858 25.2313C59.0633 25.6905 59.3091 26.087 59.6232 26.4209C59.9373 26.7548 60.2992 27.0122 60.7089 27.1931C61.1323 27.36 61.5898 27.4435 62.0814 27.4435Z" fill="#FFD14C"/>
<path d="M82.845 14.087H91.6535V15.7148H84.5658V20.5565H91.5306V22.1844H84.5658V28.6957H82.845V14.087Z" fill="#FFD14C"/>
<path d="M98.3788 15.2557C98.3788 14.8522 98.5154 14.5113 98.7885 14.2331C99.0753 13.9409 99.4167 13.7948 99.8127 13.7948C100.209 13.7948 100.543 13.9409 100.816 14.2331C101.103 14.5113 101.247 14.8522 101.247 15.2557C101.247 15.6591 101.103 16.007 100.816 16.2991C100.543 16.5774 100.209 16.7165 99.8127 16.7165C99.4167 16.7165 99.0753 16.5774 98.7885 16.2991C98.5154 16.007 98.3788 15.6591 98.3788 15.2557ZM95.4699 27.1931H99.0343V19.847H95.8387V18.3444H100.632V27.1931H103.951V28.6957H95.4699V27.1931Z" fill="#FFD14C"/>
<path d="M109.365 28.6957H107.767V18.3444H109.365V20.0974H109.611C110.239 18.7339 111.331 18.0522 112.888 18.0522C114.063 18.0522 114.998 18.4278 115.695 19.1791C116.391 19.9165 116.739 21.0296 116.739 22.5183V28.6957H115.142V22.8522C115.142 21.767 114.903 20.9531 114.425 20.4105C113.947 19.8678 113.298 19.5965 112.479 19.5965C111.509 19.5965 110.744 19.9374 110.184 20.6191C109.638 21.287 109.365 22.1844 109.365 23.3113V28.6957Z" fill="#FFD14C"/>
<path d="M127.685 26.9426H127.439C127.111 27.6383 126.654 28.1531 126.066 28.487C125.493 28.8209 124.885 28.9878 124.243 28.9878C123.574 28.9878 122.953 28.8765 122.379 28.6539C121.805 28.4174 121.3 28.0765 120.863 27.6313C120.44 27.1722 120.105 26.6157 119.859 25.9618C119.614 25.3078 119.491 24.5496 119.491 23.687V23.3531C119.491 22.5044 119.614 21.7531 119.859 21.0991C120.105 20.4452 120.44 19.8957 120.863 19.4505C121.3 18.9913 121.805 18.6435 122.379 18.407C122.953 18.1705 123.56 18.0522 124.202 18.0522C124.899 18.0522 125.527 18.2122 126.087 18.5322C126.66 18.8383 127.111 19.3183 127.439 19.9722H127.685V18.3444H129.282V26.567C129.282 26.9844 129.467 27.1931 129.836 27.1931H130.348V28.6957H129.262C128.798 28.6957 128.415 28.5426 128.115 28.2365C127.828 27.9305 127.685 27.5409 127.685 27.0678V26.9426ZM124.407 27.4435C124.885 27.4435 125.322 27.3531 125.718 27.1722C126.128 26.9913 126.476 26.7339 126.763 26.4C127.05 26.0661 127.275 25.6696 127.439 25.2105C127.603 24.7374 127.685 24.2157 127.685 23.6452V23.3948C127.685 22.8383 127.603 22.3305 127.439 21.8713C127.275 21.3983 127.043 20.9948 126.742 20.6609C126.456 20.327 126.107 20.0696 125.698 19.8887C125.302 19.6939 124.871 19.5965 124.407 19.5965C123.929 19.5965 123.492 19.687 123.096 19.8678C122.7 20.0487 122.352 20.3061 122.051 20.64C121.764 20.96 121.539 21.3565 121.375 21.8296C121.211 22.2887 121.129 22.7965 121.129 23.3531V23.687C121.129 24.8696 121.43 25.7948 122.031 26.4626C122.645 27.1165 123.437 27.4435 124.407 27.4435Z" fill="#FFD14C"/>
<path d="M134.451 28.6957H132.853V18.3444H134.451V20.0974H134.697C135.325 18.7339 136.417 18.0522 137.974 18.0522C139.149 18.0522 140.084 18.4278 140.781 19.1791C141.477 19.9165 141.825 21.0296 141.825 22.5183V28.6957H140.228V22.8522C140.228 21.767 139.989 20.9531 139.511 20.4105C139.033 19.8678 138.384 19.5965 137.565 19.5965C136.595 19.5965 135.83 19.9374 135.27 20.6191C134.724 21.287 134.451 22.1844 134.451 23.3113V28.6957Z" fill="#FFD14C"/>
<path d="M154.901 25.0226C154.792 25.5931 154.601 26.1218 154.327 26.6087C154.068 27.0957 153.733 27.52 153.324 27.8818C152.914 28.2296 152.436 28.5009 151.89 28.6957C151.343 28.8905 150.736 28.9878 150.067 28.9878C149.356 28.9878 148.68 28.8696 148.039 28.6331C147.41 28.3965 146.857 28.0557 146.379 27.6105C145.901 27.1513 145.519 26.5948 145.232 25.9409C144.959 25.287 144.822 24.5357 144.822 23.687V23.4365C144.822 22.6018 144.959 21.8505 145.232 21.1826C145.519 20.5148 145.901 19.9513 146.379 19.4922C146.857 19.0331 147.41 18.6783 148.039 18.4278C148.68 18.1774 149.356 18.0522 150.067 18.0522C150.708 18.0522 151.302 18.1496 151.849 18.3444C152.395 18.5391 152.873 18.8174 153.283 19.1791C153.706 19.527 154.047 19.9444 154.307 20.4313C154.58 20.9183 154.764 21.447 154.86 22.0174L153.262 22.3931C153.221 22.0313 153.119 21.6835 152.955 21.3496C152.805 21.0018 152.593 20.7026 152.32 20.4522C152.06 20.1878 151.739 19.9791 151.357 19.8261C150.975 19.6731 150.531 19.5965 150.026 19.5965C149.534 19.5965 149.07 19.6939 148.633 19.8887C148.209 20.0696 147.834 20.3339 147.506 20.6818C147.178 21.0157 146.919 21.4191 146.728 21.8922C146.55 22.3652 146.461 22.88 146.461 23.4365V23.687C146.461 24.2713 146.55 24.8 146.728 25.2731C146.919 25.7322 147.178 26.1218 147.506 26.4418C147.834 26.7618 148.216 27.0122 148.653 27.1931C149.09 27.36 149.561 27.4435 150.067 27.4435C150.572 27.4435 151.009 27.367 151.378 27.2139C151.76 27.047 152.081 26.8383 152.34 26.5878C152.613 26.3235 152.825 26.0244 152.975 25.6905C153.139 25.3565 153.249 25.0087 153.303 24.647L154.901 25.0226Z" fill="#FFD14C"/>
<path d="M159.107 24.0209C159.148 25.0505 159.462 25.8783 160.049 26.5044C160.636 27.1305 161.456 27.4435 162.507 27.4435C162.985 27.4435 163.402 27.3878 163.757 27.2765C164.112 27.1652 164.412 27.0122 164.658 26.8174C164.917 26.6226 165.122 26.4 165.273 26.1496C165.436 25.8852 165.566 25.607 165.662 25.3148L167.178 25.7322C166.891 26.6922 166.358 27.4783 165.58 28.0905C164.815 28.6887 163.777 28.9878 162.466 28.9878C161.742 28.9878 161.073 28.8626 160.459 28.6122C159.858 28.3478 159.339 27.9791 158.902 27.5061C158.465 27.0331 158.123 26.4696 157.878 25.8157C157.632 25.1618 157.509 24.4383 157.509 23.6452V23.1444C157.509 22.4209 157.632 21.7461 157.878 21.12C158.137 20.4939 158.492 19.9583 158.943 19.5131C159.393 19.0539 159.919 18.6991 160.52 18.4487C161.135 18.1844 161.797 18.0522 162.507 18.0522C163.34 18.0522 164.057 18.2122 164.658 18.5322C165.273 18.8383 165.771 19.2209 166.153 19.68C166.549 20.1391 166.836 20.64 167.014 21.1826C167.205 21.7252 167.301 22.2261 167.301 22.6852V24.0209H159.107ZM162.507 19.5965C162.056 19.5965 161.633 19.6731 161.237 19.8261C160.855 19.9652 160.513 20.167 160.213 20.4313C159.926 20.6957 159.687 21.0087 159.496 21.3705C159.318 21.7183 159.202 22.1009 159.148 22.5183H165.703C165.675 22.0731 165.566 21.6696 165.375 21.3078C165.197 20.9461 164.958 20.64 164.658 20.3896C164.371 20.1391 164.037 19.9444 163.654 19.8052C163.286 19.6661 162.903 19.5965 162.507 19.5965Z" fill="#FFD14C"/>
</g>
<defs>
<filter id="filter0_ddd" x="26.5093" y="6.7948" width="150.792" height="35.0748" filterUnits="userSpaceOnUse" color-interpolation-filters="sRGB">
<feFlood flood-opacity="0" result="BackgroundImageFix"/>
<feColorMatrix in="SourceAlpha" type="matrix" values="0 0 0 0 0 0 0 0 0 0 0 0 0 0 0 0 0 0 127 0" result="hardAlpha"/>
<feOffset dx="2" dy="1"/>
<feGaussianBlur stdDeviation="4"/>
<feComposite in2="hardAlpha" operator="out"/>
<feColorMatrix type="matrix" values="0 0 0 0 0.972549 0 0 0 0 0.619608 0 0 0 0 0.333333 0 0 0 0.12 0"/>
<feBlend mode="normal" in2="BackgroundImageFix" result="effect1_dropShadow"/>
<feColorMatrix in="SourceAlpha" type="matrix" values="0 0 0 0 0 0 0 0 0 0 0 0 0 0 0 0 0 0 127 0" result="hardAlpha"/>
<feOffset dx="1" dy="1"/>
<feGaussianBlur stdDeviation="2"/>
<feComposite in2="hardAlpha" operator="out"/>
<feColorMatrix type="matrix" values="0 0 0 0 1 0 0 0 0 0.819608 0 0 0 0 0.298039 0 0 0 0.1 0"/>
<feBlend mode="normal" in2="effect1_dropShadow" result="effect2_dropShadow"/>
<feColorMatrix in="SourceAlpha" type="matrix" values="0 0 0 0 0 0 0 0 0 0 0 0 0 0 0 0 0 0 127 0" result="hardAlpha"/>
<feOffset dx="1" dy="1"/>
<feGaussianBlur stdDeviation="1"/>
<feComposite in2="hardAlpha" operator="out"/>
<feColorMatrix type="matrix" values="0 0 0 0 0 0 0 0 0 0 0 0 0 0 0 0 0 0 0.15 0"/>
<feBlend mode="normal" in2="effect2_dropShadow" result="effect3_dropShadow"/>
<feBlend mode="normal" in="SourceGraphic" in2="effect3_dropShadow" result="shape"/>
</filter>
<clipPath id="clip0">
<rect width="29.328" height="34.7826" fill="white"/>
</clipPath>
</defs>
</svg>
