<svg width="20" height="20" viewBox="0 0 20 20" fill="none" xmlns="http://www.w3.org/2000/svg">
<path d="M16.592 12.925H12.817C12.596 12.925 12.384 13.0128 12.2277 13.1691C12.0715 13.3254 11.9837 13.5373 11.9837 13.7584C11.9837 13.9794 12.0715 14.1913 12.2277 14.3476C12.384 14.5039 12.596 14.5917 12.817 14.5917H14.817C13.8978 15.5523 12.7123 16.2161 11.413 16.4978C10.1136 16.7796 8.75967 16.6664 7.52514 16.1727C6.29061 15.6791 5.23188 14.8276 4.48498 13.7277C3.73809 12.6277 3.33714 11.3296 3.33366 10C3.33366 9.77901 3.24586 9.56705 3.08958 9.41077C2.9333 9.25449 2.72134 9.16669 2.50033 9.16669C2.27931 9.16669 2.06735 9.25449 1.91107 9.41077C1.75479 9.56705 1.66699 9.77901 1.66699 10C1.6714 11.6274 2.15218 13.2178 3.05 14.575C3.94781 15.9323 5.22338 16.997 6.71928 17.6377C8.21517 18.2784 9.86594 18.4671 11.4678 18.1806C13.0697 17.894 14.5527 17.1446 15.7337 16.025V17.5C15.7337 17.721 15.8215 17.933 15.9777 18.0893C16.134 18.2456 16.346 18.3334 16.567 18.3334C16.788 18.3334 17 18.2456 17.1562 18.0893C17.3125 17.933 17.4003 17.721 17.4003 17.5V13.75C17.3983 13.5347 17.313 13.3286 17.1623 13.1748C17.0116 13.021 16.8072 12.9315 16.592 12.925ZM10.0003 1.66669C7.86398 1.67278 5.81157 2.49912 4.26699 3.97502V2.50002C4.26699 2.27901 4.1792 2.06704 4.02291 1.91076C3.86663 1.75448 3.65467 1.66669 3.43366 1.66669C3.21265 1.66669 3.00068 1.75448 2.8444 1.91076C2.68812 2.06704 2.60033 2.27901 2.60033 2.50002V6.25002C2.60033 6.47103 2.68812 6.683 2.8444 6.83928C3.00068 6.99556 3.21265 7.08335 3.43366 7.08335H7.18366C7.40467 7.08335 7.61663 6.99556 7.77291 6.83928C7.92919 6.683 8.01699 6.47103 8.01699 6.25002C8.01699 6.02901 7.92919 5.81705 7.77291 5.66076C7.61663 5.50448 7.40467 5.41669 7.18366 5.41669H5.18366C6.10238 4.45658 7.28707 3.79294 8.58566 3.51094C9.88425 3.22895 11.2375 3.34147 12.4717 3.83407C13.7058 4.32667 14.7647 5.17686 15.5122 6.27552C16.2597 7.37418 16.6619 8.67118 16.667 10C16.667 10.221 16.7548 10.433 16.9111 10.5893C17.0674 10.7456 17.2793 10.8334 17.5003 10.8334C17.7213 10.8334 17.9333 10.7456 18.0896 10.5893C18.2459 10.433 18.3337 10.221 18.3337 10C18.3337 8.90567 18.1181 7.82204 17.6993 6.81099C17.2805 5.79994 16.6667 4.88129 15.8929 4.10746C15.1191 3.33364 14.2004 2.71981 13.1894 2.30102C12.1783 1.88224 11.0947 1.66669 10.0003 1.66669Z" fill="white" fill-opacity="0.8"/>
</svg>
