<svg width="24" height="24" viewBox="0 0 24 24" fill="none" xmlns="http://www.w3.org/2000/svg">
<path d="M14.9734 8.02456L12.4479 2.90833C12.2645 2.53674 11.7346 2.53674 11.5512 2.90833L9.0258 8.02456C8.95303 8.17198 8.81244 8.27421 8.64976 8.29799L3.00147 9.12357C2.59152 9.18349 2.42812 9.68741 2.72492 9.97649L6.81119 13.9565C6.92912 14.0714 6.98295 14.237 6.95512 14.3992L5.99087 20.0213C5.92081 20.4298 6.34958 20.7413 6.7164 20.5484L11.7669 17.8924C11.9125 17.8158 12.0866 17.8158 12.2323 17.8924L17.2828 20.5484C17.6496 20.7413 18.0784 20.4298 18.0083 20.0213L17.044 14.3992C17.0162 14.237 17.07 14.0714 17.188 13.9565L21.2742 9.97649C21.571 9.68741 21.4076 9.18349 20.9977 9.12357L15.3494 8.29799C15.1867 8.27421 15.0461 8.17198 14.9734 8.02456Z" fill="#F89E55"/>
<path fill-rule="evenodd" clip-rule="evenodd" d="M11.0302 2.55738C11.397 1.81421 12.4568 1.81421 12.8236 2.55738L15.349 7.67361L20.9973 8.49919C21.8172 8.61903 22.144 9.62687 21.5504 10.205L17.4641 14.1851L18.4284 19.8072C18.5685 20.6241 17.711 21.2471 16.9773 20.8613L11.9269 18.2053L6.87643 20.8613C6.1428 21.2471 5.28525 20.6241 5.42536 19.8072L6.38962 14.1851L2.30336 10.205C1.70976 9.62687 2.03655 8.61903 2.85646 8.49919L8.50475 7.67361L11.0302 2.55738ZM14.4523 8.11623L11.9269 3L9.40146 8.11623C9.25592 8.41108 8.97473 8.61554 8.64938 8.66309L3.00109 9.48867L7.08735 13.4687C7.32323 13.6984 7.43089 14.0296 7.37523 14.3541L6.41097 19.9762L11.4614 17.3202C11.7528 17.167 12.101 17.167 12.3923 17.3202L17.4428 19.9762L16.4785 14.3541C16.4229 14.0296 16.5305 13.6984 16.7664 13.4687L20.8527 9.48867L15.2044 8.66309C14.879 8.61554 14.5978 8.41108 14.4523 8.11623Z" fill="#F89E55"/>
</svg>
