<svg width="24" height="24" viewBox="0 0 24 24" fill="none" xmlns="http://www.w3.org/2000/svg">
<path fill-rule="evenodd" clip-rule="evenodd" d="M6.96472 2.96447C7.90241 2.02678 9.17418 1.5 10.5003 1.5H17.5003C18.0525 1.5 18.5003 1.94772 18.5003 2.5C18.5003 3.05228 18.0525 3.5 17.5003 3.5H10.5003C9.70461 3.5 8.94155 3.81607 8.37894 4.37868C7.81633 4.94129 7.50026 5.70435 7.50026 6.5L7.58203 17.0761C7.58203 17.4806 7.33839 17.8452 6.96471 18C6.59104 18.1548 6.16092 18.0692 5.87492 17.7832L0.874924 12.7832C0.4844 12.3927 0.4844 11.7595 0.874924 11.369C1.26545 10.9785 1.89861 10.9785 2.28914 11.369L5.58203 14.6619L5.50026 6.5C5.50026 5.17392 6.02704 3.90215 6.96472 2.96447ZM17.0358 6C17.4095 5.84522 17.8396 5.93078 18.1256 6.21677L23.1256 11.2168C23.5161 11.6073 23.5161 12.2405 23.1256 12.631C22.7351 13.0215 22.1019 13.0215 21.7114 12.631L18.4185 9.33809L18.5003 17.5C18.5003 18.8261 17.9735 20.0979 17.0358 21.0355C16.0981 21.9732 14.8263 22.5 13.5003 22.5H6.50026C5.94797 22.5 5.50026 22.0523 5.50026 21.5C5.50026 20.9477 5.94797 20.5 6.50026 20.5H13.5003C14.2959 20.5 15.059 20.1839 15.6216 19.6213C16.1842 19.0587 16.5003 18.2957 16.5003 17.5L16.4185 6.92388C16.4185 6.51942 16.6621 6.15478 17.0358 6Z" fill="white"/>
</svg>
