<svg width="20" height="20" viewBox="0 0 20 20" fill="none" xmlns="http://www.w3.org/2000/svg">
<path d="M10.0003 18.8236C14.8734 18.8236 18.8238 14.8731 18.8238 10C18.8238 5.12694 14.8734 1.17651 10.0003 1.17651C5.12719 1.17651 1.17676 5.12694 1.17676 10C1.17676 14.8731 5.12719 18.8236 10.0003 18.8236Z" fill="#E84142"/>
<path d="M13.1129 10.2293C13.4186 9.70131 13.9119 9.70131 14.2176 10.2293L16.1213 13.5712C16.427 14.0992 16.1769 14.5299 15.5655 14.5299H11.7303C11.1259 14.5299 10.8758 14.0992 11.1745 13.5712L13.1129 10.2293ZM9.43067 3.7958C9.73637 3.26777 10.2227 3.26777 10.5284 3.7958L10.9522 4.56004L11.9527 6.3178C12.1958 6.81803 12.1958 7.40858 11.9527 7.90881L8.59695 13.724C8.29126 14.1964 7.78408 14.4952 7.22132 14.5299H4.43531C3.82391 14.5299 3.5738 14.1061 3.87949 13.5712L9.43067 3.7958Z" fill="white"/>
</svg>
